<?xml version="1.0" encoding="utf-8"?>
<!-- Generator: Adobe Illustrator 22.0.1, SVG Export Plug-In . SVG Version: 6.00 Build 0)  -->
<svg version="1.0" id="レイヤー_1" xmlns="http://www.w3.org/2000/svg" xmlns:xlink="http://www.w3.org/1999/xlink" x="0px"
	 y="0px" viewBox="0 0 357.6 397.7" enable-background="new 0 0 357.6 397.7" xml:space="preserve">
<g>
	<polygon fill="#FDC280" points="110.8,117.3 134.3,117.3 135.3,192.2 114.4,200.2 109.5,210.2 82.9,195.3 88.8,185.2 88.5,155.2 	
		"/>
	<g>
		<g>
			<path fill="#5E5157" d="M94.7,179.7c-1.7,3.5-0.4,7.7,3.1,9.5l39.5,20c3.5,1.8,7.7,0.4,9.5-3.1l41.4-81.5
				c1.8-3.5,0.4-7.7-3.1-9.5l-39.5-20.1c-3.5-1.8-7.7-0.4-9.5,3.1L94.7,179.7z"/>
			<polygon fill="#5E5157" points="139.4,94.9 145.3,92.9 147.4,208.2 141.7,209.9 			"/>
		</g>
		<path fill="#231B14" d="M99.2,178.2c-1.8,3.5-0.4,7.7,3.1,9.5l39.5,20c3.5,1.8,7.7,0.4,9.5-3.1l41.4-81.5c1.8-3.5,0.4-7.7-3.1-9.5
			l-39.5-20c-3.5-1.8-7.7-0.4-9.5,3.1L99.2,178.2z"/>
		<polygon fill="#B8B7B8" points="110.6,171.7 150.9,192.1 181.2,132.2 141,111.8 		"/>
		<path fill="#B8B7B8" d="M123,187.6c-1.2,2.3-0.3,5.1,2,6.3c2.3,1.2,5.1,0.2,6.3-2c1.2-2.3,0.3-5.1-2-6.3
			C126.9,184.4,124.1,185.3,123,187.6z"/>
	</g>
	<g>
		<polygon fill="#D1EEEB" points="102.9,237.1 117.6,216.4 77.3,192.3 66.6,210.7 		"/>
		<path fill="#A6DDE2" d="M103.2,239.2l-38.5-28l12.1-20.8l42.9,25.6L103.2,239.2z M68.5,210.3l34,24.8l13-18.3l-37.7-22.5
			L68.5,210.3z"/>
	</g>
	<polygon fill="#7D7C7E" points="276.9,205.2 357.6,243.4 342.5,397.7 152.3,397.7 134,318.3 141,233.1 199.9,206.6 	"/>
	<polygon fill="#FDAE56" points="225.1,180 219.1,221.5 236.9,240.7 259.1,225.9 251.7,175.6 	"/>
	<g>
		<polygon fill="#D1EEEB" points="241,339.9 195.4,209.6 236,226.7 282.8,211.1 		"/>
		<path fill="#A6DDE2" d="M241,344.5L193,207l43.1,18.1l49-16.3L241,344.5z M197.9,212.2l43,123.1l39.6-121.9L236,228.3L197.9,212.2
			z"/>
	</g>
	<g>
		<g>
			<polygon fill="#D1EEEB" points="212.6,196.8 236,226.7 212.6,251.4 195.6,210.1 			"/>
			<path fill="#A6DDE2" d="M212.1,254.1l-18.3-44.5l19-14.9l25.1,32.1L212.1,254.1z M197.4,210.5l15.7,38.2l21-22.2l-21.7-27.8
				L197.4,210.5z"/>
		</g>
		<g>
			<polygon fill="#D1EEEB" points="264.7,191.6 236,226.7 263.4,250.1 281.8,204 			"/>
			<path fill="#A6DDE2" d="M264,252.6l-30-25.7l30.4-37.3l19.2,13.9L264,252.6z M238.1,226.5l24.7,21.2l17.3-43.2l-15.1-11
				L238.1,226.5z"/>
		</g>
	</g>
	<path fill="#FDAE56" d="M179.1,88.9c0,0-29.7-17-34.2,4.1c-4.5,21,30.7,22.2,30.7,22.2L179.1,88.9z"/>
	<path fill="#FDAE56" d="M303.2,105.4c0,0,32.9-4.1,28.5,19.8c-6,32.3-45.9,8.9-45.9,8.9L303.2,105.4z"/>
	<g>
		<path fill="#FDC280" d="M182.1,57.1c-12.6,28.9-14.8,74-8.1,103.7c8.1,38.5,48.1,37,75.5,20.7c29.6-17.8,50.7-52,56.6-83.8
			c1.5-11.1,1.1-30.9-1.8-42c-3.7-17-51.8-15.5-66.6-17c-15.6-0.7-36.3-0.7-48.1,11.9L182.1,57.1z"/>
		<path fill="#FDAE56" d="M212.7,194.7L212.7,194.7c-21.6,0-36.6-12.2-41.1-33.5c-7.3-32.3-3.7-77.6,8.3-105.1l0.6-0.8l7.4-6.7
			c10.7-11.4,28-12.7,40.1-12.7c3.4,0,6.6,0.1,9.7,0.3c2.8,0.3,6.4,0.4,10.7,0.6c21.8,1,54.7,2.5,58.2,18.3
			c3,11.3,3.4,31.4,1.9,42.9c-6.5,34.8-29.1,68.4-57.8,85.6C238.8,190.6,224.9,194.7,212.7,194.7z M184.1,58.5
			c-11.5,26.8-14.8,70.4-7.8,101.7c5.5,25.8,25.1,29.7,36.3,29.7l0,0c11.4,0,24.4-3.8,35.6-10.5c27.5-16.5,49.3-48.8,55.5-82.2
			c1.4-10.7,1-30.3-1.8-41c-2.7-12.3-35.9-13.8-53.7-14.6c-4.4-0.2-8.2-0.4-10.9-0.6c-2.9-0.1-6.1-0.2-9.4-0.2
			c-11.2,0-27.2,1.2-36.8,11.4L184.1,58.5z"/>
	</g>
	<path fill="#332E2C" d="M258.1,100.6c0,3.8,1.8,6.8,4,6.8c2.2,0,4-3.1,4-6.8c0-3.8-1.8-6.8-4-6.8
		C259.9,93.8,258.1,96.8,258.1,100.6z"/>
	<path fill="#332E2C" d="M196.1,90.3c0,3.8,1.8,6.8,4,6.8c2.2,0,4-3.1,4-6.8c0-3.8-1.8-6.8-4-6.8C197.9,83.5,196.1,86.6,196.1,90.3z
		"/>
	<path fill="#AC661F" d="M229.3,138.4c-2.5-6.1-11.3-6.6-17.8-7c-2-0.1-3.8-0.2-5.2-0.5l0.6-4.4c6.9,0.6,16.2-14,19.2-26.7l4.3,1
		c-2.1,9.2-7.6,20.7-14.5,26.5c6.7,0.6,14.5,2.3,17.5,9.5L229.3,138.4z"/>
	<path fill="#5C493E" d="M297.6,53.4c-23.7,0-48.9-2.2-73.3,0c-21.5,2.2-61.5,16.3-64.4,6.7c7.4-8.9,22.9-11.9,33.3-17
		c-6.7-0.7-33.3,0-34.8-8.1c-2.2-10.4,33.3-9.6,40-10.4c-11.9-3.7-55.5-21.5-20-23.7c18.5-1.5,38.5-0.7,57,0.7
		c32.6,3,95.5,16.3,95.5,58.5c0,12.6-5.9,22.9-11.1,34.1c-5.2,9.6-20,37.8-31.8,37.8c0-14.8,5.2-30.4,7.4-41.5
		c2.2-11.8,4.4-20.7,5.2-33.3L297.6,53.4z"/>
	<g>
		<path fill="#231B14" d="M199.1,26c-8.9,0-28.1,1.5-36.3,5.2c-10.4,5.9-3.7,8.2,5.9,8.9c8.1,0.7,16.3,0,23.7,0.7
			c-6.7,0-51.1,5.9-37.8,23c6.7,7.4,41.5,0,50.3-2.2c16.3-3,31.8-5.2,48.1-6.7c11.8-0.7,23.7,0,35.5,0c11.9,0,11.1,0,11.9,12.6
			c0.7,17,0.7,34.1,0.7,51.8c17-5.9,21.5-33.3,24.4-48.1c3.7-22.9,1.5-33.3-21.5-39.2c-29.6-7.4-62.2-8.9-92.5-6.7
			c-3.7,0-7.4,0.7-11.1,1.5L199.1,26z"/>
	</g>
	<g>
		<path fill="#4C71B2" d="M237.6,266c2.8-0.1,24.4-1.1,21.7,58.9L239.9,361l-19.4-32.2C220.4,328.8,213.8,266.6,237.6,266z"/>
		<polygon fill="#34476E" points="246.8,305 237,259.8 229.7,304.9 237.1,291.4 		"/>
		<path fill="#4C71B2" d="M220.4,251.7c0.1,9,7.5,16.1,16.4,16l0,0c8.9-0.1,16.1-7.5,16-16.4l-0.1-6.5c-0.1-8.9-7.5-16.1-16.4-16
			l0,0c-8.9,0.1-16.1,7.5-16,16.4L220.4,251.7z"/>
	</g>
	<g>
		<g>
			<path fill="#7D7C7E" d="M280.8,200.9l25.9,28.9l-15.7,9.3l13.3,16.2c0,0-48.6,93.9-62.5,109.1L280.8,200.9z"/>
			<path fill="#5C5959" d="M241.8,366.7c-0.4,0-0.8-0.1-1.1-0.3c-1-0.5-1.5-1.6-1.2-2.7l39-163.4c0.2-0.9,0.9-1.6,1.8-1.8
				c0.9-0.2,1.8,0.1,2.4,0.7l25.9,28.9c0.5,0.5,0.7,1.3,0.6,2c-0.1,0.7-0.5,1.3-1.2,1.7l-13.3,7.8l11.5,14c0.6,0.7,0.7,1.8,0.3,2.6
				c-2,3.8-48.9,94.3-62.8,109.6C243.2,366.4,242.5,366.7,241.8,366.7z M282.1,205.9L247,353.2c17-25.9,49.2-87.6,54.5-97.7
				l-12.3-14.9c-0.4-0.5-0.6-1.3-0.5-2c0.1-0.7,0.5-1.3,1.1-1.7l13.2-7.8L282.1,205.9z"/>
		</g>
	</g>
	<g>
		<g>
			<path fill="#7D7C7E" d="M199.1,202l-25.9,28.9l15.7,9.3l-13.3,16.2c0,0,51.7,93.3,65.6,108.5L199.1,202z"/>
			<path fill="#5C5959" d="M241.2,367.2c-0.7,0-1.3-0.3-1.8-0.8c-13.9-15.3-63.8-105.1-65.9-109c-0.5-0.9-0.4-1.9,0.2-2.7l11.5-14
				L172,233c-0.6-0.4-1-1-1.2-1.7c-0.1-0.7,0.1-1.4,0.6-2l25.9-28.9c0.6-0.7,1.5-0.9,2.4-0.7c0.9,0.2,1.5,0.9,1.8,1.7l42.1,162.9
				c0.3,1.1-0.2,2.2-1.2,2.7C242,367.2,241.6,367.2,241.2,367.2z M178.5,256.6c5.6,10.1,39.7,71.1,57.3,97l-37.9-146.7l-21,23.4
				l13.2,7.8c0.6,0.4,1,1,1.1,1.7c0.1,0.7-0.1,1.4-0.5,2L178.5,256.6z"/>
		</g>
	</g>
	<g>
		<polygon fill="#7D7C7E" points="276.5,318.2 319.3,308.8 319.8,324.4 277.1,333.8 		"/>
		<path fill="#5C5959" d="M277.1,336.2c-0.5,0-1-0.2-1.5-0.5c-0.6-0.4-0.9-1.1-0.9-1.8l-0.6-15.6c0-1.2,0.8-2.2,1.9-2.4l42.8-9.4
			c0.7-0.2,1.4,0,2,0.4c0.6,0.4,0.9,1.1,0.9,1.8l0.6,15.6c0,1.2-0.8,2.2-1.9,2.4l-42.7,9.4C277.4,336.2,277.2,336.2,277.1,336.2z
			 M279,320.2l0.4,10.7l38-8.4l-0.4-10.7L279,320.2z"/>
	</g>
	<polygon fill="#7D7C7E" points="136.4,322.1 141,233.1 82,286.2 113.6,236.9 64.4,207.8 0,333.3 35.4,363.3 	"/>
	<polygon fill="#FA655A" points="219.2,150.5 252.5,142.1 244.2,167.1 	"/>
	<polygon fill="#FDC280" points="111.9,115.3 135,115.4 141.4,135.7 119.9,166.7 91,164.8 	"/>
	<polygon fill="#AC661F" points="120.9,167 101.3,166.8 101.4,163.1 119,163.3 139.3,133.9 133.7,115.9 115.9,117.8 115.5,114.1 
		136.3,111.8 143.4,134.5 	"/>
	
		<rect x="110.4" y="124.9" transform="matrix(0.9992 -3.883775e-02 3.883775e-02 0.9992 -4.828 4.9118)" fill="#AC661F" width="27.2" height="3.7"/>
	<rect x="102.8" y="139" fill="#AC661F" width="33.3" height="3.7"/>
	
		<rect x="108.8" y="137.7" transform="matrix(5.760517e-03 -1 1 5.760517e-03 -43.8243 263.5734)" fill="#AC661F" width="3.7" height="32.2"/>
</g>
</svg>
